<svg xmlns="http://www.w3.org/2000/svg" viewBox="0 0 10000 10000" fill="none" preserveAspectRatio="xMidYMid meet" version="1.2" baseProfile="tiny-ps" xml:space="preserve"><title>find developer</title>
<rect width="10000" height="10000" fill="white"/>
<path d="M4828.51 6454H3797.26V3544.91H4837.04C5129.65 3544.91 5381.54 3603.15 5592.72 3719.62C5803.89 3835.16 5966.3 4001.35 6079.93 4218.2C6194.52 4435.06 6251.81 4694.53 6251.81 4996.61C6251.81 5299.64 6194.52 5560.06 6079.93 5777.86C5966.3 5995.67 5802.94 6162.81 5589.88 6279.28C5377.76 6395.76 5123.97 6454 4828.51 6454ZM4412.32 5927.01H4802.94C4984.76 5927.01 5137.7 5894.81 5261.75 5830.42C5386.75 5765.08 5480.5 5664.23 5543 5527.86C5606.45 5390.55 5638.17 5213.47 5638.17 4996.61C5638.17 4781.65 5606.45 4605.99 5543 4469.62C5480.5 4333.26 5387.22 4232.88 5263.17 4168.49C5139.12 4104.09 4986.18 4071.9 4804.37 4071.9H4412.32V5927.01Z" fill="black"/>
<circle cx="4104" cy="3002" r="300" fill="url(#paint0_linear_2022_35)"/>
<defs>
<linearGradient id="paint0_linear_2022_35" x1="3084.5" y1="2423" x2="5027" y2="3718" gradientUnits="userSpaceOnUse">
<stop stop-color="#FBBF24"/>
<stop offset="1" stop-color="#D97706"/>
</linearGradient>
</defs>
</svg>
